<?xml version="1.0" encoding="utf-8"?>
<svg viewBox="-591.409 -241.14 2082.372 881.952" xmlns="http://www.w3.org/2000/svg">
  <defs>
    <clipPath id="clip2_10120_65256">
      <rect width="2088" height="154" fill="white" transform="translate(0 646)"/>
    </clipPath>
  </defs>
  <mask id="mask0_10120_65256" style="mask-type:alpha" maskUnits="userSpaceOnUse" x="0" y="0" width="2088" height="800">
    <rect width="2088" height="800" fill="#5865F2"/>
  </mask>
  <g mask="url(#mask0_10120_65256)" transform="matrix(1, 0, 0, 1, -594.713562, -152.662354)">
    <g clip-path="url(#clip2_10120_65256)">
      <path d="M2088 761.517V800H0V716.612C18.0438 715.127 35.9136 711.433 52.635 702.179C67.1118 694.237 80.3532 682.411 94.917 674.745C114.944 664.197 136.677 661.866 158.096 660.243C212.428 656.149 266.987 655.982 321.343 659.743C342.362 661.21 363.66 663.333 383.548 672.846C402.914 682.117 420.088 698.035 437.801 712.555C460.014 730.825 483.719 747.232 508.672 761.603C528.995 749.259 536.512 741.853 575.488 748.223C599.848 752.194 609.713 728.49 634.247 706.788C659.234 684.621 696.104 686.831 749.261 724.813C749.261 724.813 768.854 735.776 788.916 758.858C824.915 749.778 861.388 742.66 898.171 737.537C923.435 734.084 949.379 731.477 974.278 737.001C1000.8 742.889 1024.49 757.615 1045.79 774.362L1047.78 775.95C1081.14 781.996 1114.99 784.938 1148.9 784.738C1174.5 784.462 1200.6 782.338 1224.44 769.269C1238.91 761.327 1252.16 749.501 1266.72 741.836C1286.75 731.287 1308.48 728.956 1329.9 727.333C1384.23 723.239 1438.79 723.072 1493.15 726.833C1514.17 728.3 1535.46 730.424 1555.35 739.936C1566.15 745.406 1576.3 752.06 1585.61 759.773C1593.63 759.445 1606.99 759.566 1629.11 760.619C1656.95 761.931 1677.73 768.786 1694.38 777.47C1725.7 757.903 1758.04 739.7 1791.42 722.862C1809.37 713.815 1827.96 705.027 1848.4 701.972C1868.85 698.916 1889.92 701.782 1910.26 705.614C1972.15 717.303 2030.91 737.433 2088 761.517Z" fill="white"/>
      <path d="M1520.99 733.066C1522.73 732.496 1524.26 731.892 1525.81 731.201C1525.81 731.029 1525.81 730.856 1525.81 730.683L1513.8 714.558C1515.86 714.007 1517.87 713.303 1519.82 712.452C1519.83 712.32 1519.83 712.187 1519.82 712.055L1500.21 685.657L1480.74 712.055C1480.73 712.187 1480.73 712.32 1480.74 712.452C1482.68 713.306 1484.69 714.01 1486.74 714.558L1474.77 730.683C1474.77 730.856 1474.77 731.029 1474.77 731.201C1476.32 731.892 1477.94 732.496 1479.59 733.066L1471.22 744.357C1471.22 744.547 1471.22 744.737 1471.22 744.926C1480.4 748.844 1490.28 750.865 1500.26 750.865C1510.25 750.865 1520.13 748.844 1529.3 744.926C1529.32 744.737 1529.32 744.546 1529.3 744.357L1520.99 733.066Z" fill="#3442D9"/>
      <path d="M120.321 703.681C122.339 702.99 124.305 702.231 126.184 701.385C126.184 701.195 126.184 700.988 126.184 700.781L111.655 681.202C114.133 680.506 116.558 679.635 118.911 678.596C118.928 678.435 118.928 678.273 118.911 678.112L95.0732 646L71.3396 678.112C71.331 678.273 71.331 678.435 71.3396 678.596C73.6975 679.637 76.1283 680.509 78.6128 681.202L64.0838 700.781C64.066 700.982 64.066 701.184 64.0838 701.385C65.963 702.231 67.9292 702.99 69.9476 703.681L59.7512 717.406C59.734 717.636 59.734 717.867 59.7512 718.097C70.8845 722.954 82.9291 725.414 95.0906 725.313C107.275 725.422 119.344 722.962 130.5 718.097C130.517 717.867 130.517 717.636 130.5 717.406L120.321 703.681Z" fill="#3442D9"/>
      <path d="M208.297 737.847C210.315 737.157 212.281 736.397 214.161 735.551C214.161 735.361 214.161 735.154 214.161 734.947L199.632 715.369C202.11 714.675 204.535 713.804 206.887 712.762C206.905 712.601 206.905 712.439 206.887 712.278L183.049 680.166L159.177 712.278C159.168 712.439 159.168 712.601 159.177 712.762C161.534 713.804 163.965 714.675 166.45 715.369L151.921 734.947C151.903 735.148 151.903 735.35 151.921 735.551C153.8 736.397 155.766 737.157 157.785 737.847L147.588 751.573C147.571 751.802 147.571 752.033 147.588 752.263C158.749 757.024 170.77 759.479 182.919 759.479C195.067 759.479 207.089 757.024 218.25 752.263C218.267 752.033 218.267 751.802 218.25 751.573L208.297 737.847Z" fill="#3442D9"/>
      <path d="M2007.59 739.229C2010.22 738.331 2012.81 737.364 2015.18 736.26C2015.2 735.995 2015.2 735.73 2015.18 735.465L1996.42 710.224C1999.64 709.306 2002.79 708.152 2005.84 706.772C2005.84 706.582 2005.84 706.375 2005.84 706.167L1974.97 664.594L1944.08 706.167C1944.07 706.368 1944.07 706.571 1944.08 706.772C1947.13 708.155 1950.28 709.309 1953.5 710.224L1934.67 735.552C1934.65 735.816 1934.65 736.081 1934.67 736.346C1937.11 737.451 1939.65 738.418 1942.27 739.315L1929.07 757.081C1929.04 757.379 1929.04 757.68 1929.07 757.978C1943.51 764.141 1959.07 767.319 1974.8 767.319C1990.52 767.319 2006.08 764.141 2020.52 757.978C2020.54 757.679 2020.54 757.38 2020.52 757.081L2007.59 739.229Z" fill="#3442D9"/>
      <path d="M1444.2 719.081C1445.57 718.598 1446.93 718.097 1448.22 717.51C1448.23 717.372 1448.23 717.234 1448.22 717.096L1438.25 703.647C1439.96 703.201 1441.62 702.624 1443.24 701.92C1443.25 701.817 1443.25 701.713 1443.24 701.61L1426.87 679.563L1410.53 701.592C1410.52 701.696 1410.52 701.8 1410.53 701.903C1412.15 702.607 1413.82 703.184 1415.52 703.63L1405.57 717.13C1405.56 717.268 1405.56 717.407 1405.57 717.545C1406.89 718.138 1408.24 718.663 1409.61 719.116L1402.65 728.542C1402.64 728.698 1402.64 728.853 1402.65 729.008C1410.31 732.288 1418.56 733.98 1426.9 733.98C1435.25 733.98 1443.5 732.288 1451.16 729.008C1451.17 728.853 1451.17 728.698 1451.16 728.542L1444.2 719.081Z" fill="#3442D9"/>
      <path d="M1668.02 730.665L1667.72 730.806H1667.82L1668.02 730.665Z" fill="#8CD9FF"/>
    </g>
  </g>
</svg>